#tb 0: 33339/500000
#media_type 0: video
#codec_id 0: rawvideo
#dimensions 0: 160x120
#sar 0: 0/1
0,          0,          0,        1,    28800, 0x4a4efbbc
0,          1,          1,        1,    28800, 0xc6c7e26a
0,          2,          2,        1,    28800, 0x6cd40913
0,          3,          3,        1,    28800, 0xa7b40fe9
0,          4,          4,        1,    28800, 0x5e77fcc6
0,          5,          5,        1,    28800, 0x9b3ef3f0
0,          6,          6,        1,    28800, 0xe7031845
0,          7,          7,        1,    28800, 0x2c15458d
0,          8,          8,        1,    28800, 0xbc3d4abf
0,          9,          9,        1,    28800, 0xf8755ac7
0,         10,         10,        1,    28800, 0x64d0405b
0,         11,         11,        1,    28800, 0x1e0c341d
0,         12,         12,        1,    28800, 0x05ca3c2b
0,         13,         13,        1,    28800, 0x28cb307f
0,         14,         14,        1,    28800, 0x3a9855af
0,         15,         15,        1,    28800, 0x92b63321
0,         16,         16,        1,    28800, 0x85585151
0,         17,         17,        1,    28800, 0x1ff01bf9
0,         18,         18,        1,    28800, 0x4bab200f
0,         19,         19,        1,    28800, 0xcf732ad7
0,         20,         20,        1,    28800, 0xced00cff
0,         21,         21,        1,    28800, 0xa69046fd
0,         22,         22,        1,    28800, 0x5aa341c3
0,         23,         23,        1,    28800, 0x87ef6219
